<svg version="1.1" xmlns="http://www.w3.org/2000/svg" xmlns:xlink="http://www.w3.org/1999/xlink" width="36" height="29" viewBox="0,0,256,206.21875"><g fill="#1de7cb" fill-rule="nonzero" stroke="none" stroke-width="1" stroke-linecap="butt" stroke-linejoin="miter" stroke-miterlimit="10" stroke-dasharray="" stroke-dashoffset="0" font-family="none" font-weight="none" font-size="none" text-anchor="none" style="mix-blend-mode: normal"><g transform="translate(0,0.49179) scale(7.11111,7.11111)"><path d="M28.2857,10.5714c0,-5.68524 -6.3281,-10.28569 -14.1428,-10.28569c-7.81477,0 -14.1429,4.60045 -14.1429,10.28569c0,3.2545 2.08929,6.1674 5.34375,8.0558c-0.68304,1.6674 -1.56696,2.4509 -2.35045,3.3349c-0.22098,0.2611 -0.48214,0.5022 -0.40178,0.8839c0.06027,0.3415 0.34152,0.5826 0.64286,0.5826c0.02008,0 0.04017,0 0.06026,0c0.60268,-0.0804 1.18527,-0.1808 1.72768,-0.3215c2.02902,-0.5223 3.91741,-1.3861 5.58478,-2.5714c1.125,0.2009 2.3103,0.3214 3.5358,0.3214c7.8147,0 14.1428,-4.6004 14.1428,-10.2857zM36,15.7143c0,-3.3549 -2.2098,-6.32814 -5.6049,-8.19644c0.3013,0.98437 0.462,2.00893 0.462,3.05354c0,3.596 -1.8482,6.9107 -5.2031,9.3616c-3.1138,2.25 -7.1919,3.4956 -11.5111,3.4956c-0.5826,0 -1.1853,-0.0402 -1.7679,-0.0804c2.5112,1.6473 5.846,2.6518 9.4821,2.6518c1.2255,0 2.4108,-0.1205 3.5358,-0.3214c1.6674,1.1852 3.5558,2.0491 5.5848,2.5714c0.5424,0.1406 1.125,0.2411 1.7277,0.3214c0.3214,0.0402 0.6227,-0.221 0.7031,-0.5826c0.0803,-0.3817 -0.1808,-0.6227 -0.4018,-0.8839c-0.7835,-0.8839 -1.6674,-1.6674 -2.3504,-3.3348c3.2544,-1.8884 5.3437,-4.7813 5.3437,-8.0558z"></path></g></g></svg>